<?xml version='1.0' encoding='utf-8'?>
<svg xmlns="http://www.w3.org/2000/svg" width="24" height="24" viewBox="0 0 24 24" fill="none" stroke="#35211C" stroke-width="2" stroke-linecap="round" stroke-linejoin="round" data-style="colored" data-modified="true" data-palette="industrial">
  <g id="sym_efcc55ca626c_body" data-role="body"><g id="sym_efcc55ca626c_outline" data-role="outline"><path d="M11 4a1 1 0 1 0 2 0a1 1 0 1 0 -2 0" fill="#8D3F2E" />
  <path d="M3 12a1 1 0 1 0 2 0a1 1 0 1 0 -2 0" fill="#D87835" />
  <path d="M19 12a1 1 0 1 0 2 0a1 1 0 1 0 -2 0" fill="#F0B429" />
  <path d="M11 20a1 1 0 1 0 2 0a1 1 0 1 0 -2 0" fill="#8D3F2E" />
  <path d="M5.5 5.5l3 3" fill="#D87835" />
  <path d="M15.5 15.5l3 3" fill="#F0B429" />
  <path d="M18.5 5.5l-3 3" fill="#8D3F2E" />
  <path d="M8.5 15.5l-3 3" fill="#D87835" />
</g></g></svg>